<?xml version="1.0" encoding="UTF-8"?>
<svg width="20px" height="20px" viewBox="0 0 20 20" version="1.1" xmlns="http://www.w3.org/2000/svg" xmlns:xlink="http://www.w3.org/1999/xlink">
    <!-- Generator: Sketch 47.1 (45422) - http://www.bohemiancoding.com/sketch -->
    <title>Icons / Free trucker / Yellow</title>
    <desc>Created with Sketch.</desc>
    <defs></defs>
    <g id="Symbols" stroke="none" stroke-width="1" fill="none" fill-rule="evenodd">
        <g id="Icons-/-Free-trucker-/-Yellow" fill="#FCCD01">
            <path d="M17.0671334,2.925 C13.1607434,-0.977046598 6.83111617,-0.97469936 2.92762121,2.93024341 C-0.975873738,6.83518617 -0.975873738,13.1648138 2.92762121,17.0697566 C6.83111617,20.9746994 13.1607434,20.9770466 17.0671334,17.075 C18.9449039,15.1993174 20,12.6540925 20,10 C20,7.34590752 18.9449039,4.80068257 17.0671334,2.925 L17.0671334,2.925 Z M1.74066285,8.80735294 L6.4465452,4.10147059 L8.21125108,5.86617647 L3.50536873,10.5720588 L1.74066285,8.80735294 Z M15.2994864,11.7485294 C15.4590817,11.9026112 15.5492197,12.1149272 15.5492197,12.3367647 C15.5492197,12.5586022 15.4590817,12.7709182 15.2994864,12.925 L14.7112511,13.5132353 C14.8708464,13.6673171 14.9609845,13.8796331 14.9609845,14.1014706 C14.9609845,14.3233081 14.8708464,14.5356241 14.7112511,14.6897059 L14.1230158,15.2779412 C13.968934,15.4375365 13.756618,15.5276745 13.5347805,15.5276745 C13.312943,15.5276745 13.100627,15.4375365 12.9465452,15.2779412 L12.3583099,15.8661765 C12.2042281,16.0257718 11.9919121,16.1159098 11.7700746,16.1159098 C11.5482371,16.1159098 11.3359211,16.0257718 11.1818393,15.8661765 C11.1818393,15.8661765 9.95536873,16.9985294 8.82889814,15.8661765 L6.47595696,13.5132353 C5.29948637,12.3367647 5.29948637,9.98382353 5.29948637,9.98382353 L8.82889814,6.45441177 L12.3583099,6.45441177 C12.3583099,6.45441177 13.5347805,6.45441177 14.1230158,5.86617647 L15.2994864,4.68970588 C15.2994864,4.68970588 16.475957,5.86617647 15.2994864,7.04264706 L14.1230158,8.21911765 C13.5347805,8.80735294 12.3583099,8.80735294 12.3583099,8.80735294 L15.2994864,11.7485294 Z" id="ico/autistaLibero"></path>
        </g>
    </g>
</svg>