<?xml version="1.0" encoding="UTF-8"?>
<svg width="20px" height="20px" viewBox="0 0 20 20" version="1.1" xmlns="http://www.w3.org/2000/svg" xmlns:xlink="http://www.w3.org/1999/xlink">
    <!-- Generator: Sketch 47.1 (45422) - http://www.bohemiancoding.com/sketch -->
    <title>Icons / Offer a load / Yellow</title>
    <desc>Created with Sketch.</desc>
    <defs></defs>
    <g id="Symbols" stroke="none" stroke-width="1" fill="none" fill-rule="evenodd">
        <g id="Icons-/-Offer-a-load-/-Yellow" fill-rule="nonzero">
            <g id="offeraload">
                <circle id="Oval" fill="#FCCD01" cx="9.86086957" cy="9.86086957" r="9.86086957"></circle>
                <path d="M4.93043478,14.7884058 C4.93043478,14.7884058 4.93043478,15.8202899 5.75362319,16.2376812 L5.75362319,16.4231884 C5.75362319,16.8770224 6.12152833,17.2449275 6.57536232,17.2449275 C7.02919631,17.2449275 7.39710145,16.8770224 7.39710145,16.4231884 L12.3246377,16.4231884 C12.3246377,16.8770224 12.6925428,17.2449275 13.1463768,17.2449275 C13.6002108,17.2449275 13.9681159,16.8770224 13.9681159,16.4231884 L13.9681159,16.2463768 C14.7855072,15.8173913 14.7884058,14.7971014 14.7884058,14.7971014 L4.93333333,14.7971014 L4.93043478,14.7884058 Z" id="Shape" fill="#FFFFFF"></path>
                <path d="M14.7913043,13.1478261 L14.7913043,4.93043478 C14.7913043,4.93043478 14.7913043,3.28695652 13.1478261,3.28695652 L6.57391304,3.28695652 C4.93043478,3.28695652 4.93043478,4.93043478 4.93043478,4.93043478 L4.93043478,13.1478261 L14.7855072,13.1478261 L14.7913043,13.1478261 Z" id="Shape" fill="#FFFFFF"></path>
            </g>
        </g>
    </g>
</svg>