<?xml version="1.0" encoding="UTF-8"?>
<svg width="20px" height="20px" viewBox="0 0 20 20" version="1.1" xmlns="http://www.w3.org/2000/svg" xmlns:xlink="http://www.w3.org/1999/xlink">
    <!-- Generator: Sketch 47.1 (45422) - http://www.bohemiancoding.com/sketch -->
    <title>Icons / Save money</title>
    <desc>Created with Sketch.</desc>
    <defs></defs>
    <g id="Symbols" stroke="none" stroke-width="1" fill="none" fill-rule="evenodd">
        <g id="Icons-/-Save-money" fill-rule="nonzero">
            <g id="savemoney">
                <circle id="Oval" fill="#FBCE0F" cx="9.94561404" cy="9.94561404" r="9.94561404"></circle>
                <circle id="Oval" fill="#E39725" cx="9.94561404" cy="9.94561404" r="7.95614035"></circle>
                <path d="M15.3263158,1.58421053 L13.8789474,3.03157895 C15.1222018,3.74076529 16.1522172,4.77078065 16.8614035,6.01403509 L18.3087719,4.56666667 C17.5379692,3.37177858 16.5212039,2.35501324 15.3263158,1.58421053 L15.3263158,1.58421053 Z" id="Shape" fill="#FFFFFF"></path>
                <path d="M4.56666667,18.3105263 L6.01929825,16.8631579 C4.77599119,16.1540405 3.7459595,15.1240088 3.03684211,13.8807018 L1.58947368,15.3280702 C2.35875363,16.5224135 3.37368396,17.539138 4.56666667,18.3105263 L4.56666667,18.3105263 Z" id="Shape" fill="#FFFFFF"></path>
                <path d="M9.00175439,17.8473684 C8.45185172,17.7827284 7.91027485,17.6604178 7.38596491,17.4824561 L5.85438596,19.0140351 C6.3269107,19.2276591 6.81556335,19.4036444 7.31578947,19.5403509 L9.00175439,17.8473684 Z" id="Shape" fill="#FFFFFF"></path>
                <path d="M19.0122807,5.85438596 L17.4807018,7.38596491 C17.6596639,7.91249775 17.7825666,8.45644501 17.8473684,9.00877193 L19.5385965,7.31754386 C19.4019639,6.81672511 19.2259777,6.3274837 19.0122807,5.85438596 Z" id="Shape" fill="#FFFFFF"></path>
            </g>
        </g>
    </g>
</svg>