<?xml version="1.0" encoding="UTF-8"?>
<svg width="20px" height="20px" viewBox="0 0 20 20" version="1.1" xmlns="http://www.w3.org/2000/svg" xmlns:xlink="http://www.w3.org/1999/xlink">
    <!-- Generator: Sketch 47.1 (45422) - http://www.bohemiancoding.com/sketch -->
    <title>Icons / Truck availability / Yellow</title>
    <desc>Created with Sketch.</desc>
    <defs></defs>
    <g id="Symbols" stroke="none" stroke-width="1" fill="none" fill-rule="evenodd">
        <g id="Icons-/-Truck-availability-/-Yellow" fill-rule="nonzero">
            <g id="truckavailability">
                <circle id="Oval" fill="#FCCD01" cx="9.86086957" cy="9.86086957" r="9.86086957"></circle>
                <path d="M15.6115942,5.75072464 L14.7884058,5.75072464 L14.7884058,4.92753623 C14.7884058,4.92753623 14.7884058,3.28405797 13.1449275,3.28405797 L6.57101449,3.28405797 C4.92753623,3.28405797 4.92753623,4.92753623 4.92753623,4.92753623 L4.92753623,5.75072464 L4.10724638,5.75072464 C3.88849879,5.74675364 3.67753967,5.83190102 3.52283629,5.9866044 C3.3681329,6.14130779 3.28298552,6.35226691 3.28695652,6.57101449 L3.28695652,8.21449275 C3.28457111,8.43224223 3.37041833,8.64168676 3.52494476,8.79512113 C3.6794712,8.9485555 3.88951929,9.03291517 4.10724638,9.02898551 L4.92753623,9.02898551 L4.92753623,13.1362319 L5.75072464,13.1362319 L6.57101449,14.7797101 L4.92753623,14.7797101 C4.92753623,14.7797101 4.92753623,15.8086957 5.74782609,16.2289855 L5.74782609,16.4144928 C5.74385509,16.6332403 5.82900247,16.8441995 5.98370585,16.9989028 C6.13840924,17.1536062 6.34936836,17.2387536 6.56811594,17.2347826 C6.7873612,17.2395521 6.99908011,17.1547575 7.15441984,16.9999647 C7.30975957,16.845172 7.39530041,16.6337535 7.39130435,16.4144928 L12.3188406,16.4144928 C12.3188406,16.8683267 12.6867457,17.2362319 13.1405797,17.2362319 C13.5944137,17.2362319 13.9623188,16.8683267 13.9623188,16.4144928 L13.9623188,16.2463768 C14.7797101,15.8173913 14.7826087,14.7971014 14.7826087,14.7971014 L13.1449275,14.7971014 L13.9623188,13.1478261 L14.7826087,13.1478261 L14.7826087,9.02898551 L15.6057971,9.02898551 C15.8245447,9.03295651 16.0355038,8.94780913 16.1902072,8.79310574 C16.3449106,8.63840235 16.430058,8.42744324 16.426087,8.20869565 L16.426087,6.56521739 C16.4284387,6.3484881 16.3433817,6.13994949 16.1901219,5.98668971 C16.0368621,5.83342994 15.8283235,5.74837294 15.6115942,5.75072464 L15.6115942,5.75072464 Z M11.5014493,14.7884058 L8.21449275,14.7884058 L5.75072464,9.86086957 L13.9623188,9.86086957 L11.5014493,14.7884058 Z M13.9623188,9.02898551 L5.75072464,9.02898551 L5.75072464,5.75072464 L13.9623188,5.75072464 L13.9623188,9.02898551 Z" id="Shape" fill="#FFFFFF"></path>
            </g>
        </g>
    </g>
</svg>