<?xml version="1.0" encoding="UTF-8"?>
<svg width="20px" height="16px" viewBox="0 0 20 16" version="1.1" xmlns="http://www.w3.org/2000/svg" xmlns:xlink="http://www.w3.org/1999/xlink">
    <!-- Generator: Sketch 47.1 (45422) - http://www.bohemiancoding.com/sketch -->
    <title>twitter</title>
    <desc>Created with Sketch.</desc>
    <defs></defs>
    <g id="Landing-page" stroke="none" stroke-width="1" fill="none" fill-rule="evenodd">
        <g id="Landing-page/Tablet-CONTROLLO" transform="translate(-873.000000, -2967.000000)" fill="#FFFFFF">
            <g id="Footer" transform="translate(0.000000, 2881.000000)">
                <g id="Group-2" transform="translate(295.000000, 40.000000)">
                    <g id="social" transform="translate(553.000000, 0.000000)">
                        <path d="M44.4473886,46.2946495 C43.6548012,46.7579558 42.7755558,47.0946028 41.8409826,47.2759256 C41.093724,46.490638 40.027164,46 38.8466153,46 C36.5815085,46 34.7443589,47.8085612 34.7443589,50.0390977 C34.7443589,50.3557459 34.7810219,50.6630613 34.8496817,50.9590441 C31.4400227,50.7903872 28.4169916,49.182481 26.393194,46.7392902 C26.0405626,47.3352554 25.8372496,48.029215 25.8372496,48.7698384 C25.8372496,50.1704234 26.563177,51.4070179 27.663067,52.1309757 C26.9911342,52.1096436 26.3578642,51.9283209 25.8045862,51.6263385 L25.8045862,51.6770022 C25.8045862,53.6335547 27.2191114,55.2661262 29.096257,55.6381045 C28.7516248,55.7300991 28.389661,55.7794296 28.0143652,55.7794296 C27.7503916,55.7794296 27.4937506,55.7540977 27.2424424,55.7067671 C27.7657234,57.3106736 29.2802386,58.4792721 31.0753925,58.5119369 C29.6708662,59.595207 27.9023764,60.2411693 25.9792354,60.2411693 C25.6472686,60.2411693 25.3219678,60.2218371 25,60.184506 C26.8171516,61.3304391 28.9742692,61.9984002 31.2907043,61.9984002 C38.8379495,61.9984002 42.9642036,55.8447591 42.9642036,50.5070704 C42.9642036,50.332414 42.9615372,50.1570909 42.953538,49.9844343 C43.7541246,49.4151341 44.4507216,48.7038423 45,47.8932229 C44.2647402,48.2152041 43.4741526,48.4311915 42.643569,48.5291858 C43.4908176,48.0298816 44.140086,47.2385944 44.4473886,46.2946495 L44.4473886,46.2946495 Z" id="twitter"></path>
                    </g>
                </g>
            </g>
        </g>
    </g>
</svg>
